<svg xmlns="http://www.w3.org/2000/svg" width="1024" height="1024" viewBox="0 0 1024 1024"> <defs> <linearGradient id="g_rainbow" x1="0" y1="0" x2="1" y2="1"> <stop offset="0" stop-color="#22C55E"/> <stop offset="0.25" stop-color="#06B6D4"/> <stop offset="0.5" stop-color="#3B82F6"/> <stop offset="0.75" stop-color="#A855F7"/> <stop offset="1" stop-color="#F97316"/> </linearGradient> <radialGradient id="g_glow" cx="50%" cy="50%" r="60%"> <stop offset="0" stop-color="#FFFFFF" stop-opacity="0.9"/> <stop offset="0.5" stop-color="#FFFFFF" stop-opacity="0.25"/> <stop offset="1" stop-color="#FFFFFF" stop-opacity="0"/> </radialGradient> <filter id="outerGlow" x="-30%" y="-30%" width="160%" height="160%"> <feGaussianBlur stdDeviation="10" result="blur"/> <feColorMatrix in="blur" type="matrix" values="1 0 0 0 0 0 1 0 0 0 0 0 1 0 0 0 0 0 0.75 0" result="glow"/> <feMerge> <feMergeNode in="glow"/> <feMergeNode in="SourceGraphic"/> </feMerge> </filter> <filter id="softShadow" x="-20%" y="-20%" width="140%" height="140%"> <feDropShadow dx="0" dy="10" stdDeviation="18" flood-color="#000" flood-opacity="0.18"/> </filter> </defs> <!-- Outer ring (rainbow) --> <g filter="url(#softShadow)"> <path d="M 320 270 A 270 270 0 1 1 270 320" fill="none" stroke="url(#g_rainbow)" stroke-width="72" stroke-linecap="round" filter="url(#outerGlow)"/> <path d="M 270 320 A 270 270 0 0 1 320 270" fill="none" stroke="#0EA5E9" stroke-width="16" stroke-linecap="round" opacity="0.35"/> </g> <!-- Inner avatar circle --> <circle cx="512" cy="540" r="230" fill="#0B1220" opacity="0.06"/> <circle cx="512" cy="540" r="230" fill="#FFFFFF" opacity="0.08"/> <circle cx="512" cy="540" r="230" fill="url(#g_glow)"/> <!-- Avatar placeholder (simple) --> <circle cx="512" cy="540" r="190" fill="#FFFFFF" opacity="0.12"/> <circle cx="512" cy="540" r="190" fill="none" stroke="#FFFFFF" stroke-width="10" opacity="0.28"/> <!-- Sparkles (minimal) --> <g opacity="0.9"> <path d="M 350 420 L 360 450 L 390 460 L 360 470 L 350 500 L 340 470 L 310 460 L 340 450 Z" fill="#FFFFFF" opacity="0.7"/> <path d="M 640 650 L 650 675 L 675 685 L 650 695 L 640 720 L 630 695 L 605 685 L 630 675 Z" fill="#FFFFFF" opacity="0.55"/> </g> <!-- Star (gold) --> <path d="M 760 256 L 792 320 L 862 333 L 811 382 L 823 452 L 760 419 L 697 452 L 709 382 L 658 333 L 728 320 Z" fill="#FBBF24" stroke="#F59E0B" stroke-width="14" stroke-linejoin="round" filter="url(#outerGlow)"/> <!-- Small ring cap highlight --> <path d="M 300 300 Q 512 140 724 300" fill="none" stroke="#FFFFFF" stroke-width="22" stroke-linecap="round" opacity="0.55"/> </svg>