<svg xmlns="http://www.w3.org/2000/svg" width="24" height="24" viewBox="0 0 24 24" fill="none">
  <title>Notifications Inactive</title>
  <path d="M4.5 10.2v3.6" stroke="#A9B4CC" stroke-width="1.8" stroke-linecap="round"/>
  <path d="M7.8 9.15 16.15 5.8c1.03-.42 2.15.34 2.15 1.45v9.5c0 1.11-1.12 1.87-2.15 1.45L7.8 14.85V9.15Z" fill="#F3F6FC" stroke="#A9B4CC" stroke-width="1.8" stroke-linejoin="round"/>
  <path d="M7.8 10.1H5.9A1.65 1.65 0 0 0 4.25 11.75v.5c0 .91.74 1.65 1.65 1.65h1.9" fill="#E7EDF8"/>
  <path d="M7.8 10.1H5.9A1.65 1.65 0 0 0 4.25 11.75v.5c0 .91.74 1.65 1.65 1.65h1.9" stroke="#A9B4CC" stroke-width="1.8" stroke-linejoin="round"/>
  <path d="M17.9 9.3c.9.48 1.52 1.43 1.52 2.55 0 1.12-.62 2.07-1.52 2.55" stroke="#A9B4CC" stroke-width="1.8" stroke-linecap="round"/>
  <path d="M7.65 14.95l1.4 3.1c.21.47.68.77 1.19.77h.26c.58 0 1-.57.82-1.12l-1.1-3.3" stroke="#A9B4CC" stroke-width="1.8" stroke-linecap="round" stroke-linejoin="round"/>
</svg>